<svg width="81" height="32" viewBox="0 0 81 32" fill="none" xmlns="http://www.w3.org/2000/svg">
<path d="M10.15 2.6913H14.02L23.26 30.8933H17.98L16.15 24.9183H7.89997L6.12997 30.8933H0.969971L10.15 2.6913ZM11.95 10.8969L9.36997 19.6603H14.56L11.95 10.8969Z" fill="#01996D"/>
<path d="M24.8863 0.779297H29.3863V30.8933H24.8863V0.779297Z" fill="#01996D"/>
<path d="M32.6793 11.5343H37.1793V30.8933H32.6793V11.5343ZM32.3193 5.43979C32.3193 4.48379 32.5693 3.67385 33.0693 3.00996C33.5893 2.31952 34.2093 1.9743 34.9293 1.9743C35.6493 1.9743 36.2593 2.31952 36.7593 3.00996C37.2793 3.67385 37.5393 4.48379 37.5393 5.43979C37.5393 6.39579 37.2793 7.21901 36.7593 7.90945C36.2593 8.57334 35.6493 8.90529 34.9293 8.90529C34.2093 8.90529 33.5893 8.57334 33.0693 7.90945C32.5693 7.21901 32.3193 6.39579 32.3193 5.43979Z" fill="#01996D"/>
<path d="M38.8822 11.5343H43.7422L47.4322 24.6793H47.4922L50.9122 11.5343H55.4422L49.6822 30.8933H44.9122L38.8822 11.5343Z" fill="#01996D"/>
<path d="M57.1422 11.5343H61.6422V30.8933H57.1422V11.5343ZM56.7822 5.43979C56.7822 4.48379 57.0322 3.67385 57.5322 3.00996C58.0522 2.31952 58.6722 1.9743 59.3922 1.9743C60.1122 1.9743 60.7222 2.31952 61.2222 3.00996C61.7422 3.67385 62.0022 4.48379 62.0022 5.43979C62.0022 6.39579 61.7422 7.21901 61.2222 7.90945C60.7222 8.57334 60.1122 8.90529 59.3922 8.90529C58.6722 8.90529 58.0522 8.57334 57.5322 7.90945C57.0322 7.21901 56.7822 6.39579 56.7822 5.43979Z" fill="#01996D"/>
<path d="M64.3351 21.2138C64.3351 19.6735 64.5451 18.2794 64.9651 17.0313C65.3851 15.7832 65.9551 14.7209 66.6751 13.8446C67.4151 12.9417 68.2751 12.2513 69.2551 11.7733C70.2551 11.2953 71.3151 11.0563 72.4351 11.0563C73.5551 11.0563 74.6051 11.2953 75.5851 11.7733C76.5851 12.2513 77.4451 12.9417 78.1651 13.8446C78.9051 14.7209 79.4851 15.7832 79.9051 17.0313C80.3251 18.2794 80.5351 19.6735 80.5351 21.2138C80.5351 22.754 80.3251 24.1482 79.9051 25.3963C79.4851 26.6444 78.9051 27.7199 78.1651 28.6228C77.4451 29.4991 76.5851 30.1763 75.5851 30.6543C74.6051 31.1323 73.5551 31.3713 72.4351 31.3713C71.3151 31.3713 70.2551 31.1323 69.2551 30.6543C68.2751 30.1763 67.4151 29.4991 66.6751 28.6228C65.9551 27.7199 65.3851 26.6444 64.9651 25.3963C64.5451 24.1482 64.3351 22.754 64.3351 21.2138ZM68.8351 21.2138C68.8351 22.6743 69.1451 23.856 69.7651 24.7589C70.4051 25.6618 71.2951 26.1133 72.4351 26.1133C73.5751 26.1133 74.4551 25.6618 75.0751 24.7589C75.7151 23.856 76.0351 22.6743 76.0351 21.2138C76.0351 19.7532 75.7151 18.5715 75.0751 17.6686C74.4551 16.7657 73.5751 16.3143 72.4351 16.3143C71.2951 16.3143 70.4051 16.7657 69.7651 17.6686C69.1451 18.5715 68.8351 19.7532 68.8351 21.2138Z" fill="#01996D"/>
</svg>
